<?xml version="1.0" standalone="no"?>
<!DOCTYPE svg PUBLIC "-//W3C//DTD SVG 20010904//EN"
 "http://www.w3.org/TR/2001/REC-SVG-20010904/DTD/svg10.dtd">
<svg version="1.0" xmlns="http://www.w3.org/2000/svg"
 width="1024.000000pt" height="398.000000pt" viewBox="0 0 1024.000000 398.000000"
 preserveAspectRatio="xMidYMid meet">

<g transform="translate(0.000000,398.000000) scale(0.100000,-0.100000)"
fill="#000000" stroke="none">
<path d="M7461 3809 c-381 -30 -696 -168 -796 -351 -27 -49 -30 -62 -33 -181
-4 -128 -5 -128 -31 -138 -77 -29 -115 -122 -92 -224 18 -80 42 -102 119 -110
l62 -6 0 97 0 97 43 -39 c23 -22 61 -53 84 -69 l43 -30 0 -231 0 -232 -30 -12
c-16 -7 -32 -21 -35 -31 -4 -10 -10 -19 -15 -19 -19 0 -91 96 -110 146 -24 65
-27 169 -6 219 19 45 6 44 -34 -2 -59 -67 -85 -137 -85 -233 0 -74 4 -93 31
-150 17 -36 45 -82 63 -102 l31 -36 0 -156 c0 -131 -2 -156 -15 -156 -8 0 -17
-12 -21 -27 -4 -23 -29 -96 -42 -125 -2 -5 48 -8 112 -8 64 0 116 4 116 9 0
10 -36 105 -56 146 -11 22 -14 58 -12 127 l3 97 65 -41 c122 -78 288 -138 483
-175 74 -14 145 -18 357 -17 237 0 276 2 370 22 134 29 317 90 408 136 40 20
74 36 77 36 3 0 5 -40 5 -89 0 -66 -4 -92 -15 -101 -8 -7 -15 -20 -15 -29 0
-9 -11 -40 -25 -69 -14 -30 -25 -56 -25 -58 0 -2 52 -4 115 -4 63 0 115 2 115
4 0 2 -11 29 -25 60 -14 31 -25 63 -25 70 0 7 -7 19 -15 26 -12 10 -15 38 -15
132 l0 120 53 57 c81 89 111 157 115 268 4 105 -10 162 -60 237 -17 26 -32 46
-33 44 -2 -2 1 -27 7 -57 18 -103 -17 -217 -90 -293 -35 -37 -36 -37 -47 -15
-6 12 -23 28 -38 35 l-27 13 0 227 0 228 28 16 c15 9 47 35 71 57 24 23 45 41
47 41 2 0 4 -34 4 -75 l0 -75 49 0 c69 0 78 6 109 64 22 43 26 64 27 133 0 93
-15 123 -78 158 -36 20 -37 21 -37 83 0 34 2 62 3 62 14 0 368 -177 394 -196
54 -41 116 -25 116 30 0 39 -30 64 -88 75 -28 5 -120 37 -205 69 -254 99 -256
99 -202 120 60 24 395 111 485 126 72 13 88 100 25 135 -24 14 -32 12 -114
-26 -92 -42 -434 -173 -452 -173 -6 0 -26 19 -44 41 -125 157 -431 268 -822
299 -143 11 -161 11 -325 -1z m494 -129 c191 -38 383 -110 489 -182 262 -179
171 -404 -214 -532 -154 -51 -260 -67 -473 -73 -146 -4 -214 -2 -310 12 -356
50 -626 172 -714 322 -112 191 169 396 641 468 139 21 441 14 581 -15z m-770
-949 c112 -29 239 -49 350 -57 l95 -7 0 -228 c0 -214 -1 -228 -19 -234 -32
-10 -51 -41 -58 -94 l-6 -51 -51 0 c-113 0 -360 50 -458 92 l-48 20 0 82 c0
84 -15 126 -46 126 -12 0 -14 35 -14 219 l0 218 88 -33 c48 -18 123 -42 167
-53z m1215 -134 l0 -203 -30 -11 c-40 -15 -52 -52 -48 -145 4 -90 13 -82 -142
-122 -118 -31 -197 -45 -305 -54 l-84 -8 -6 51 c-8 58 -26 91 -55 100 -19 6
-20 14 -20 234 l0 228 123 6 c167 8 289 31 437 82 69 23 126 43 128 44 1 0 2
-90 2 -202z"/>
<path d="M2834 3398 c2 -35 5 -82 5 -105 l1 -43 155 0 156 0 -3 -492 c-3 -475
-4 -495 -24 -538 -37 -80 -120 -130 -214 -130 -54 0 -121 24 -159 57 -52 44
-71 88 -78 181 l-6 72 -115 0 -115 0 7 -63 c15 -151 55 -247 135 -328 89 -88
197 -129 344 -129 227 0 391 127 442 342 12 52 15 167 15 651 l0 587 -276 0
-275 0 5 -62z"/>
<path d="M3924 3030 c-113 -17 -188 -54 -277 -139 -118 -112 -174 -266 -164
-451 9 -166 51 -266 151 -365 105 -103 234 -151 387 -143 95 5 154 27 212 78
l37 32 0 -41 0 -41 115 0 115 0 0 530 0 530 -115 0 -115 0 0 -45 c0 -25 -3
-45 -6 -45 -3 0 -23 13 -43 29 -53 41 -89 58 -156 70 -64 12 -66 12 -141 1z
m193 -236 c63 -21 112 -59 129 -100 10 -24 15 -87 17 -216 2 -202 -2 -220 -62
-271 -53 -44 -111 -60 -203 -55 -126 7 -200 55 -250 163 -20 43 -23 66 -23
160 0 93 4 118 23 160 36 79 106 142 182 166 44 13 138 10 187 -7z"/>
<path d="M5060 3015 c-25 -8 -64 -30 -87 -50 -23 -19 -44 -35 -47 -35 -3 0 -6
20 -6 45 l0 45 -110 0 -110 0 0 -530 0 -530 115 0 115 0 0 348 c0 221 4 361
11 387 6 21 25 53 43 71 59 59 193 66 266 14 57 -40 60 -65 60 -460 l0 -360
120 0 119 0 3 373 c3 365 3 373 25 408 65 105 257 95 317 -16 20 -38 21 -54
24 -402 l3 -363 115 0 115 0 -3 408 -3 407 -33 67 c-40 81 -102 139 -181 169
-46 17 -72 20 -151 17 -117 -4 -190 -35 -247 -104 l-37 -44 -43 49 c-64 74
-115 94 -242 98 -73 2 -120 -2 -151 -12z"/>
<path d="M3160 1045 l0 -775 115 0 114 0 3 364 c3 350 4 366 24 392 34 46 67
65 135 76 105 18 192 -19 233 -97 20 -38 21 -58 24 -388 l3 -348 117 3 117 3
3 320 c3 354 -4 428 -47 522 -55 117 -154 186 -297 206 -95 13 -184 -7 -255
-58 -27 -19 -51 -35 -54 -35 -3 0 -5 133 -5 295 l0 295 -115 0 -115 0 0 -775z"/>
<path d="M6080 1531 c0 -160 -2 -291 -5 -291 -2 0 -26 14 -52 30 -66 42 -133
60 -223 60 -142 0 -249 -43 -355 -141 -116 -110 -165 -229 -165 -404 0 -170
43 -279 149 -386 172 -171 437 -200 614 -65 19 14 37 26 40 26 4 0 7 -20 7
-45 l0 -45 115 0 115 0 0 769 0 769 -37 4 c-21 3 -75 6 -120 7 l-83 2 0 -290z
m-104 -457 c95 -48 98 -58 102 -252 4 -190 -3 -225 -54 -282 -47 -52 -110 -75
-204 -74 -131 1 -223 60 -276 178 -23 51 -28 75 -28 146 0 120 44 211 129 270
58 40 98 50 192 46 68 -2 92 -8 139 -32z"/>
<path d="M7690 1010 l0 -740 120 0 120 0 0 343 c0 188 -3 521 -7 740 l-6 397
-114 0 -113 0 0 -740z"/>
<path d="M1450 1709 c-228 -26 -372 -180 -372 -399 0 -95 15 -147 63 -222 57
-89 148 -140 356 -201 67 -20 138 -43 157 -52 146 -70 155 -267 16 -345 -40
-22 -57 -25 -145 -25 -89 0 -106 3 -157 28 -67 33 -112 82 -136 150 -10 27
-23 47 -31 47 -9 0 -57 -12 -108 -26 -72 -21 -93 -31 -93 -44 0 -10 18 -54 40
-98 43 -86 126 -174 198 -211 133 -68 341 -86 472 -42 210 72 311 237 280 459
-13 98 -47 170 -107 229 -65 65 -123 94 -283 142 -250 76 -305 119 -298 232 7
108 80 162 218 162 128 0 201 -49 250 -167 13 -31 28 -56 33 -56 5 0 52 28
103 62 l93 61 -32 60 c-100 187 -293 282 -517 256z"/>
<path d="M2515 1319 c-88 -18 -194 -76 -263 -145 -241 -241 -183 -695 109
-862 87 -49 159 -66 284 -65 91 0 124 5 190 26 95 31 208 95 201 114 -11 28
-119 163 -131 163 -7 0 -18 -6 -24 -14 -6 -7 -39 -26 -74 -42 -55 -26 -73 -29
-157 -29 -76 0 -104 4 -140 21 -106 50 -162 146 -168 289 -5 115 19 188 85
251 64 62 136 87 238 82 88 -5 138 -25 200 -79 l36 -32 73 79 74 79 -21 23
c-35 38 -122 91 -194 118 -78 30 -231 41 -318 23z"/>
<path d="M4556 1314 c-185 -45 -342 -208 -375 -388 -25 -134 -6 -300 46 -406
15 -30 54 -82 87 -115 109 -108 231 -155 406 -155 108 0 190 18 264 58 53 29
156 117 156 134 0 12 -1 13 -83 76 l-55 43 -47 -30 c-78 -50 -139 -66 -245
-66 -76 0 -104 4 -141 21 -83 39 -138 102 -164 191 l-6 23 393 2 393 3 3 58
c4 86 -22 221 -58 294 -103 210 -337 314 -574 257z m251 -231 c29 -13 66 -41
83 -61 30 -36 63 -116 52 -126 -3 -3 -126 -6 -273 -6 l-268 0 8 28 c29 99 116
175 220 191 66 10 118 3 178 -26z"/>
<path d="M8510 1323 c-160 -27 -320 -142 -384 -276 -75 -160 -75 -378 2 -535
54 -112 182 -211 318 -246 81 -21 256 -21 338 0 83 21 174 73 226 130 42 46
43 47 22 63 -135 106 -133 105 -150 93 -10 -7 -50 -29 -91 -49 -65 -32 -86
-38 -160 -41 -71 -3 -96 0 -145 18 -92 35 -152 101 -181 198 l-6 22 402 0 402
0 -6 103 c-11 185 -54 296 -151 392 -69 68 -143 108 -230 124 -58 11 -155 13
-206 4z m220 -237 c52 -25 104 -89 121 -146 7 -22 10 -42 8 -44 -10 -10 -549
-11 -549 -1 0 6 11 33 24 60 24 53 89 119 134 136 86 34 190 32 262 -5z"/>
<path d="M6508 943 c2 -342 4 -372 23 -432 54 -163 210 -261 414 -261 104 0
171 20 234 70 l50 40 3 -43 3 -42 118 -3 117 -3 0 521 0 520 -120 0 -120 0 0
-332 c0 -198 -4 -348 -10 -370 -15 -51 -51 -92 -108 -120 -38 -18 -64 -23
-132 -23 -111 0 -168 25 -208 93 l-27 47 -3 353 -3 352 -117 0 -117 0 3 -367z"/>
</g>
</svg>
